<svg width="170" height="170" viewBox="0 0 170 170" fill="none" xmlns="http://www.w3.org/2000/svg">
<circle cx="85" cy="85" r="85" fill="#F0F9F4"/>
<path fill-rule="evenodd" clip-rule="evenodd" d="M84.4787 64.46C78.2557 57.2078 67.8785 55.257 60.0815 61.8978C52.2845 68.5387 51.1868 79.6418 57.3098 87.4959C62.4007 94.0261 77.8074 107.799 82.8569 112.256C83.4218 112.755 83.7043 113.005 84.0338 113.103C84.3214 113.188 84.636 113.188 84.9236 113.103C85.2531 113.005 85.5355 112.755 86.1005 112.256C91.15 107.799 106.557 94.0261 111.648 87.4959C117.771 79.6418 116.807 68.4688 108.876 61.8978C100.945 55.3269 90.7017 57.2078 84.4787 64.46Z" stroke="#28A642" stroke-width="6.225" stroke-linecap="round" stroke-linejoin="round"/>
</svg>
