<svg width="312" height="465" viewBox="0 0 312 465" fill="none" xmlns="http://www.w3.org/2000/svg">
<path d="M202.912 207.038L218.699 279.638L278.048 212.12L302.223 233.488C302.223 233.488 218.143 358.651 184.588 350.471C151.033 342.292 160.171 294.811 153.039 243.773C145.908 192.736 202.912 207.038 202.912 207.038Z" fill="white"/>
<path d="M187.827 352.068C186.638 352.07 185.453 351.932 184.297 351.657C158.744 345.413 157.173 317.777 155.287 282.784C154.586 270.272 153.837 257.35 151.975 243.943C149.969 229.592 152.749 218.896 160.267 212.144C174.99 198.931 202.187 205.562 203.323 205.852C203.539 205.913 203.736 206.03 203.893 206.192C204.05 206.353 204.162 206.553 204.217 206.772L219.496 276.952L277.25 211.224C277.467 210.981 277.771 210.833 278.096 210.813C278.412 210.797 278.723 210.9 278.966 211.103L303.141 232.496C303.362 232.688 303.503 232.955 303.539 233.246C303.575 233.536 303.502 233.829 303.335 234.069C299.805 239.127 223.533 352.044 187.827 352.068ZM186.424 206.409C178.132 206.409 168.414 207.957 161.766 213.959C155.118 219.961 152.362 230.125 154.247 243.604C156.133 257.083 156.858 270.079 157.584 282.639C159.518 316.64 161.065 343.477 184.853 349.31C198.077 352.504 222.324 333.507 254.961 294.279C277.492 267.199 296.928 238.958 300.53 233.779L278.12 213.886L219.593 280.509C219.447 280.679 219.256 280.806 219.043 280.874C218.83 280.943 218.601 280.95 218.384 280.896C218.165 280.84 217.965 280.724 217.808 280.562C217.65 280.4 217.54 280.197 217.489 279.977L201.872 208.151C196.797 207.04 191.62 206.456 186.424 206.409Z" fill="#3C4242"/>
<path d="M9.29454 421.329C4.45954 454.047 5.20896 463.05 5.20896 463.05L205.668 459.032L179.293 344.349L25.5885 360.829C18.0111 380.354 12.5485 400.637 9.29454 421.329Z" fill="#3C4242"/>
<path d="M5.20895 464.26C4.90669 464.267 4.61314 464.158 4.38841 463.955C4.16368 463.753 4.02479 463.472 4.0002 463.171C4.0002 462.783 3.2266 453.636 8.08578 421.159C11.3751 400.37 16.8697 379.992 24.4764 360.369C24.5605 360.167 24.6966 359.992 24.8707 359.86C25.0449 359.728 25.2508 359.645 25.4676 359.619L179.148 343.139C179.441 343.101 179.737 343.175 179.979 343.345C180.22 343.515 180.39 343.77 180.454 344.058L206.853 458.766C206.893 458.943 206.892 459.126 206.85 459.302C206.808 459.479 206.726 459.643 206.611 459.783C206.505 459.926 206.366 460.042 206.206 460.122C206.047 460.202 205.871 460.243 205.692 460.242L5.23313 464.26H5.20895ZM10.4791 421.522C6.58692 447.513 6.32101 458.548 6.36936 461.815L204.145 457.871L178.35 345.655L26.4588 361.942C19.075 381.191 13.7194 401.16 10.4791 421.522Z" fill="#3C4242"/>
<path d="M7.19066 409.059L195.151 387.884C177.649 276.056 168.728 335.177 189.881 230.584L212.17 224.534C201.824 170.496 176.391 146.78 176.391 146.78C151.564 102.034 91.0295 128.218 91.0295 128.218C91.0295 128.218 21.599 133.784 3.68528 193.849C-8.18464 233.585 12.1949 289.003 14.7333 337.379C15.4343 350.907 10.7686 350.35 7.19066 409.059Z" fill="#8A33FD"/>
<path d="M142.812 156.895C135.826 155.831 129.105 154.645 121.877 156.581C111.143 159.509 101.691 165.728 90.6428 168.318C78.8454 171.052 65.9842 171.149 53.9209 171.706C50.3914 171.875 54.211 176.352 51.165 174.537C40.4555 168.148 39.6093 153.604 38.6181 142.69C35.9868 117.473 36.8002 92.014 41.0356 67.0166C45.097 45.2366 49.3035 24.594 70.4083 13.462C85.7836 5.35497 107.396 0.514966 124.246 6.51657C141.096 12.5182 155.166 27.9336 161.04 44.9946C167.543 63.8706 169.671 83.0128 180.598 100.292C185.433 107.915 191.404 115.344 192.685 124.274C194.088 135.043 187.705 145.884 178.543 151.692C169.381 157.5 157.946 158.952 147.116 157.5C145.617 157.331 144.215 157.113 142.812 156.895Z" fill="white"/>
<path d="M52.1807 176.183C51.5914 176.12 51.0267 175.912 50.5368 175.578C39.7306 169.141 38.4493 155.274 37.5307 144.118V142.787C34.9682 114.158 35.7659 89.3047 39.9482 66.7745C43.8646 45.7448 47.9259 23.989 69.9494 12.373C83.8016 5.11296 106.478 -1.15484 124.754 5.35496C141.677 11.3808 156.012 26.409 162.274 44.5832C164.401 50.73 166.069 56.9736 167.689 63.0236C171.17 75.9222 174.434 88.0947 181.71 99.6139C182.581 101.018 183.499 102.397 184.418 103.776C188.576 110.044 192.879 116.53 193.846 124.104C195.248 134.752 189.35 146.247 179.172 152.685C168.293 159.582 155.674 159.751 147.019 158.686L142.692 158.057L141.652 157.912C135.101 156.895 128.888 155.952 122.312 157.742C117.344 159.22 112.495 161.072 107.807 163.284C102.371 165.864 96.7052 167.93 90.8849 169.455C80.6038 171.491 70.155 172.561 59.675 172.65L53.9213 172.892C53.7704 172.856 53.613 172.856 53.462 172.892C53.4196 173.172 53.4196 173.458 53.462 173.739C53.5829 174.104 53.5923 174.497 53.4889 174.868C53.3856 175.238 53.1742 175.57 52.8818 175.82C52.6854 176.002 52.443 176.128 52.1807 176.183ZM107.614 5.08876C94.8378 5.37833 82.302 8.62525 70.9889 14.5752C50.005 25.6346 46.0645 46.7854 42.2448 67.2586C38.0867 89.571 37.4098 114.207 39.8273 142.617L39.9482 143.948C40.8668 154.282 41.9789 167.084 51.0929 172.988C51.0925 172.408 51.2885 171.845 51.6489 171.391C51.9269 171.077 52.2699 170.828 52.6541 170.661C53.0382 170.494 53.4542 170.413 53.873 170.423L59.6266 170.181C69.9462 170.155 80.2408 169.166 90.3773 167.229C96.0172 165.728 101.505 163.702 106.768 161.179C111.554 158.93 116.499 157.037 121.563 155.516C128.67 153.604 135.125 154.596 141.943 155.516L142.982 155.685C144.384 155.879 145.786 156.097 147.213 156.266C155.505 157.307 167.52 157.162 177.794 150.628C187.174 144.699 192.637 134.147 191.356 124.419C190.438 117.401 186.304 111.157 182.315 105.059C181.396 103.655 180.453 102.252 179.559 100.848C172.089 89.0143 168.632 76.0673 165.271 63.5801C163.652 57.5785 161.984 51.4802 159.905 45.285C153.861 27.7884 140.057 13.3409 123.835 7.55715C118.606 5.82304 113.122 4.98844 107.614 5.08876Z" fill="#3C4242"/>
<path d="M150.96 56.3444C150.96 56.3444 163.434 85.3844 159.711 108.132C158.833 114.507 156.118 120.486 151.897 125.339C147.676 130.192 142.133 133.707 135.947 135.454L138.365 175.312C138.365 175.312 139.839 195.688 114.673 194.115C107.391 193.645 100.349 191.326 94.2116 187.375C88.074 183.425 83.0435 177.974 79.5951 171.536L72.125 98.4282C72.125 98.4282 99.3702 80.3508 95.2605 54.1906C95.4297 54.1906 130.072 68.3476 150.96 56.3444Z" fill="white"/>
<path d="M117.55 195.398H114.77C107.276 194.872 100.037 192.458 93.7268 188.379C87.4161 184.3 82.2388 178.689 78.6766 172.069C78.6553 171.932 78.6553 171.794 78.6766 171.657L71.2065 98.5492C71.1929 98.3276 71.2371 98.1064 71.3345 97.907C71.432 97.7076 71.5794 97.537 71.7625 97.4118C72.0043 97.2424 98.355 79.4554 94.342 54.3842C94.315 54.1721 94.3435 53.9567 94.4247 53.759C94.5059 53.5613 94.637 53.3882 94.8052 53.2564C94.9733 53.1247 95.1728 53.0389 95.384 53.0076C95.5952 52.9762 95.8109 53.0002 96.0101 53.0774C96.3485 53.0774 130.339 66.8472 150.476 55.2796C150.633 55.2137 150.802 55.1797 150.972 55.1797C151.142 55.1797 151.311 55.2137 151.467 55.2796C151.788 55.4033 152.047 55.6461 152.193 55.9572C152.7 57.143 164.764 85.5054 161.017 108.423C160.105 114.842 157.406 120.876 153.229 125.832C149.052 130.788 143.566 134.466 137.398 136.446L139.815 175.336C139.914 177.947 139.497 180.553 138.589 183.003C137.68 185.453 136.298 187.699 134.521 189.614C130.58 193.437 124.899 195.398 117.55 195.398ZM80.949 171.198C84.3349 177.391 89.2228 182.631 95.1626 186.437C101.102 190.243 107.903 192.493 114.939 192.978C122.893 193.486 128.864 191.768 132.708 187.92C135.798 184.519 137.453 180.052 137.325 175.457L134.908 135.599C134.894 135.313 134.981 135.03 135.153 134.8C135.325 134.571 135.572 134.408 135.85 134.341C141.819 132.689 147.167 129.308 151.223 124.624C155.279 119.94 157.862 114.16 158.647 108.011C161.839 88.4094 152.749 63.8464 150.476 58.111C131.886 67.791 104.544 58.8612 97.0012 56.1266C99.4187 79.4554 77.6612 96.226 73.6965 99.0816L80.949 171.198Z" fill="#3C4242"/>
<path d="M137.494 110.335C135.46 110.319 133.43 110.133 131.426 109.778C131.271 109.746 131.123 109.684 130.991 109.595C130.86 109.506 130.747 109.392 130.659 109.26C130.572 109.127 130.511 108.978 130.481 108.822C130.451 108.666 130.452 108.506 130.483 108.35C130.512 108.193 130.572 108.043 130.66 107.91C130.748 107.776 130.862 107.662 130.996 107.574C131.129 107.486 131.278 107.425 131.436 107.397C131.593 107.368 131.754 107.371 131.91 107.406C131.91 107.406 139.96 108.955 143.756 106.68C144.336 103.534 136.721 93.08 131.16 86.6186C130.949 86.3747 130.843 86.0566 130.865 85.7344C130.888 85.4122 131.038 85.1122 131.281 84.9004C131.525 84.6886 131.843 84.5823 132.164 84.605C132.486 84.6277 132.786 84.7775 132.998 85.0214C135.415 87.7802 147.068 101.744 146.246 106.801C146.199 107.193 146.064 107.569 145.85 107.9C145.636 108.231 145.35 108.51 145.013 108.713C142.689 109.897 140.098 110.456 137.494 110.335Z" fill="#3C4242"/>
<path d="M128.694 123.354C127.227 123.356 125.763 123.227 124.319 122.967C117.467 121.75 111.281 118.108 106.889 112.706C106.743 112.423 106.715 112.095 106.81 111.791C106.905 111.488 107.116 111.234 107.396 111.085C107.679 110.936 108.009 110.904 108.316 110.994C108.623 111.084 108.882 111.29 109.04 111.569C113.109 116.334 118.707 119.534 124.875 120.62C133.046 121.951 141.169 118.95 149.05 111.69C149.163 111.569 149.3 111.472 149.452 111.406C149.604 111.34 149.768 111.306 149.934 111.307C150.099 111.307 150.263 111.341 150.415 111.407C150.567 111.474 150.704 111.57 150.817 111.692C150.93 111.813 151.017 111.957 151.072 112.113C151.127 112.269 151.15 112.435 151.138 112.601C151.127 112.766 151.081 112.928 151.005 113.075C150.928 113.222 150.822 113.352 150.694 113.456C143.538 120.039 136.189 123.354 128.694 123.354Z" fill="#3C4242"/>
<path d="M135.947 135.454C135.947 135.454 114.866 139.496 102.44 137.148C102.44 137.148 117.767 167.689 137.978 166.188L135.947 135.454Z" fill="#3C4242"/>
<path d="M136.599 167.495C116.607 167.495 102.029 138.939 101.401 137.681C101.306 137.479 101.267 137.256 101.288 137.035C101.309 136.813 101.39 136.602 101.522 136.422C101.653 136.239 101.835 136.097 102.045 136.016C102.256 135.934 102.485 135.915 102.706 135.962C114.794 138.237 135.56 134.317 135.777 134.268C135.947 134.236 136.121 134.241 136.288 134.283C136.455 134.324 136.611 134.402 136.744 134.51C136.878 134.615 136.988 134.747 137.067 134.897C137.146 135.047 137.193 135.212 137.204 135.382L139.234 166.14C139.248 166.299 139.229 166.459 139.181 166.611C139.132 166.763 139.053 166.903 138.95 167.025C138.847 167.146 138.72 167.246 138.578 167.318C138.436 167.391 138.281 167.434 138.122 167.447L136.599 167.495ZM104.737 138.697C108.508 145.304 121.103 165.075 136.624 165.075L134.762 136.882C130.338 137.681 115.495 140.004 104.737 138.697Z" fill="#3C4242"/>
<path d="M257.958 136.858L310.345 134.293L284.091 245.467L227.764 251.009L257.958 136.858Z" fill="#3C4242"/>
<path d="M227.813 252.219C227.639 252.222 227.466 252.187 227.307 252.116C227.149 252.045 227.008 251.94 226.894 251.808C226.765 251.656 226.673 251.477 226.627 251.283C226.581 251.09 226.581 250.888 226.628 250.695L256.823 136.567C256.886 136.317 257.028 136.095 257.229 135.933C257.429 135.772 257.677 135.68 257.935 135.672L310.298 133.083C310.486 133.067 310.675 133.099 310.848 133.175C311.022 133.251 311.173 133.369 311.289 133.518C311.411 133.663 311.497 133.836 311.54 134.021C311.582 134.206 311.579 134.399 311.531 134.583L285.301 245.758C285.241 246.003 285.107 246.223 284.916 246.388C284.725 246.553 284.488 246.654 284.237 246.677L227.813 252.219ZM258.95 138.044L229.408 249.63L283.173 244.354L308.847 135.575L258.95 138.044Z" fill="#3C4242"/>
<path d="M189.882 231.819C189.573 231.819 189.276 231.702 189.052 231.49C188.827 231.279 188.691 230.989 188.673 230.681C187.623 214.661 184.083 198.903 178.181 183.975C178.05 183.683 178.04 183.351 178.154 183.052C178.267 182.752 178.494 182.51 178.785 182.378C178.929 182.31 179.086 182.271 179.245 182.265C179.404 182.259 179.563 182.284 179.712 182.341C179.861 182.397 179.997 182.483 180.112 182.594C180.227 182.704 180.318 182.836 180.381 182.983C186.406 198.17 190.019 214.207 191.09 230.512C191.11 230.835 191.002 231.154 190.79 231.398C190.577 231.643 190.277 231.794 189.954 231.819H189.882Z" fill="#3C4242"/>
<path d="M107.686 84.7068C107.567 84.7303 107.443 84.7303 107.324 84.7068C107.02 84.6119 106.767 84.4012 106.617 84.1204C106.468 83.8396 106.435 83.5112 106.526 83.2064C107.51 80.086 109.681 77.4783 112.57 75.9464C114.023 75.3793 115.584 75.1436 117.14 75.2567C118.696 75.3697 120.207 75.8285 121.563 76.5998C121.828 76.751 122.027 76.9974 122.118 77.2894C122.21 77.5813 122.188 77.8971 122.056 78.1731C121.924 78.4492 121.693 78.6651 121.408 78.7772C121.124 78.8894 120.808 78.8896 120.523 78.7778C119.474 78.1705 118.305 77.8016 117.097 77.697C115.89 77.5925 114.674 77.7549 113.537 78.1728C111.316 79.3776 109.638 81.3858 108.847 83.7872C108.782 84.0475 108.634 84.2791 108.424 84.4455C108.214 84.612 107.954 84.7039 107.686 84.7068Z" fill="#3C4242"/>
<path d="M141.169 77.5436H140.951C140.636 77.4791 140.358 77.2937 140.177 77.0269C139.997 76.7601 139.927 76.433 139.984 76.1158C140.174 75.1211 140.592 74.1839 141.204 73.3778C141.817 72.5717 142.607 71.9185 143.514 71.4694C145.641 70.6224 148.349 71.3 151.226 73.4538C151.455 73.6507 151.603 73.9267 151.639 74.2273C151.676 74.5278 151.598 74.8311 151.422 75.0773C151.246 75.3235 150.984 75.4946 150.688 75.557C150.392 75.6193 150.084 75.5683 149.824 75.414C147.575 73.7926 145.714 73.2118 144.433 73.6958C143.902 73.9978 143.443 74.4118 143.088 74.9091C142.733 75.4064 142.491 75.975 142.378 76.5756C142.317 76.8509 142.164 77.097 141.944 77.2731C141.724 77.4492 141.451 77.5447 141.169 77.5436Z" fill="#3C4242"/>
<path d="M37.2403 105.253C37.2403 105.253 40.1897 114.11 30.8339 139.762C21.4782 165.414 21.865 185.064 45.3389 188.597C68.8129 192.131 82.5443 189.299 85.6387 169.237C88.7331 149.176 70.6744 127.154 70.6744 127.154" fill="white"/>
<path d="M59.9887 191.09C55.0232 191.028 50.0693 190.591 45.1694 189.783C36.5631 188.501 30.471 184.943 27.1107 179.28C22.1307 170.859 22.9768 157.791 29.6974 139.326C38.7147 114.618 36.128 105.712 36.1038 105.64C36.053 105.481 36.034 105.314 36.0478 105.147C36.0616 104.981 36.108 104.819 36.1843 104.671C36.2607 104.522 36.3654 104.391 36.4926 104.283C36.6199 104.175 36.767 104.093 36.9258 104.043C37.0845 103.992 37.2517 103.973 37.4178 103.986C37.5839 104 37.7456 104.047 37.8938 104.123C38.0419 104.2 38.1736 104.304 38.2813 104.432C38.3889 104.559 38.4705 104.706 38.5213 104.865C38.5213 105.253 41.4948 114.545 32.0908 140.173C25.636 157.912 24.8383 170.302 29.3106 178.046C32.3325 183.152 37.6752 186.202 45.6529 187.387C67.9665 190.751 81.5045 188.839 84.5747 169.116C87.5482 149.926 70.0697 128.122 69.8763 127.976C69.774 127.855 69.6971 127.714 69.6501 127.563C69.6031 127.411 69.587 127.251 69.6028 127.094C69.6186 126.936 69.6659 126.782 69.742 126.643C69.818 126.504 69.9212 126.381 70.0455 126.282C70.293 126.082 70.6096 125.987 70.9264 126.019C71.2433 126.05 71.5349 126.206 71.7378 126.452C72.4872 127.371 90.1108 149.297 86.9438 169.576C84.2846 185.935 74.5179 191.09 59.9887 191.09Z" fill="#3C4242"/>
<path d="M289.845 251.009C309.185 223.542 309.185 223.542 308.097 214.08C307.251 206.82 303.625 200.455 299.829 194.454C294.994 186.807 284.43 175.094 280.489 190.703C278.531 198.205 275.509 207.425 277.588 215.121C279.522 222.235 284.841 228.068 287.766 234.747" fill="white"/>
<path d="M289.845 252.219C289.595 252.218 289.351 252.142 289.144 252.001C288.885 251.812 288.71 251.529 288.656 251.213C288.602 250.897 288.673 250.572 288.854 250.307C307.952 223.228 307.952 223.228 306.888 214.225C306.066 206.965 302.271 200.576 298.79 195.107C295.309 189.638 289.797 183.757 286.219 184.29C283.801 184.677 282.302 188.162 281.553 191.017L280.852 193.631C279.015 200.504 276.887 208.296 278.676 214.806C280.004 218.873 281.909 222.728 284.333 226.253C285.995 228.819 287.481 231.495 288.781 234.263C288.91 234.558 288.915 234.892 288.797 235.192C288.68 235.491 288.448 235.732 288.153 235.86C287.858 235.988 287.524 235.994 287.225 235.876C286.926 235.758 286.685 235.526 286.557 235.231C285.298 232.564 283.86 229.985 282.254 227.511C279.706 223.785 277.711 219.71 276.331 215.411C274.397 208.272 276.597 200.141 278.531 192.978L279.232 190.388C280.562 185.209 282.786 182.354 285.832 181.87C292.142 180.878 298.911 190.727 300.845 193.776C304.471 199.487 308.387 206.215 309.306 213.911C310.466 223.833 310.466 223.833 290.836 251.687C290.728 251.851 290.581 251.985 290.408 252.078C290.235 252.171 290.041 252.22 289.845 252.219Z" fill="#3C4242"/>
<path d="M52.3984 288.229C52.3984 288.229 139.187 368.524 163.99 359.353C188.794 350.181 217.683 311.896 234.702 285.204C251.721 258.511 273.769 221.63 277.008 205.199C280.248 188.767 275.171 176.497 269.031 179.571C262.89 182.644 239.9 205.174 239.9 205.174C239.9 205.174 247.66 183.152 244.034 183.056C240.407 182.959 229.722 192.736 226.168 224.196L152.435 299.216L91.9971 240.216" fill="white"/>
<path d="M159.59 361.24C129.927 361.24 54.9366 292.198 51.5763 289.1C51.463 288.988 51.3731 288.854 51.3117 288.706C51.2503 288.559 51.2188 288.401 51.2188 288.241C51.2188 288.081 51.2503 287.923 51.3117 287.776C51.3731 287.628 51.463 287.494 51.5763 287.382C51.8063 287.159 52.1141 287.034 52.4345 287.034C52.7549 287.034 53.0627 287.159 53.2927 287.382C53.5103 287.6 75.2436 307.661 99.7087 326.32C131.813 350.81 153.909 361.869 163.652 358.264C191.767 347.882 224.428 299.264 233.759 284.599C251.238 257.18 272.729 221.098 275.896 205.029C278.314 193.292 276.09 183.588 272.681 180.999C272.271 180.64 271.761 180.418 271.22 180.361C270.679 180.305 270.133 180.418 269.659 180.684C263.736 183.636 241.036 205.9 240.794 206.118C240.604 206.311 240.352 206.431 240.083 206.457C239.814 206.484 239.543 206.415 239.319 206.263C239.087 206.123 238.91 205.907 238.817 205.652C238.725 205.396 238.723 205.117 238.812 204.86C241.785 196.414 244.396 186.444 243.792 184.362C241.374 184.871 231.003 192.711 227.425 224.268C227.383 224.537 227.265 224.789 227.087 224.994L153.353 300.014C153.243 300.127 153.111 300.216 152.966 300.278C152.821 300.339 152.665 300.37 152.507 300.37C152.349 300.37 152.193 300.339 152.048 300.278C151.903 300.216 151.771 300.127 151.661 300.014L91.2233 241.015C90.9925 240.79 90.8603 240.483 90.8557 240.161C90.8512 239.838 90.9747 239.527 91.1991 239.296C91.4235 239.065 91.7304 238.933 92.0523 238.928C92.3742 238.924 92.6847 239.048 92.9155 239.272L152.604 297.352L225.129 223.47C228.779 192.179 239.634 181.797 244.106 181.797C244.421 181.796 244.73 181.875 245.005 182.027C245.28 182.18 245.512 182.401 245.677 182.668C247.297 185.088 244.831 194.139 242.68 200.794C249.449 194.284 263.76 180.805 268.571 178.409C269.452 177.942 270.45 177.743 271.443 177.838C272.435 177.933 273.379 178.316 274.156 178.942C278.845 182.547 280.586 193.655 278.265 205.368C275.026 221.824 253.389 258.172 235.79 285.785C223.702 304.782 192.517 350.06 164.474 360.417C162.909 360.985 161.254 361.264 159.59 361.24Z" fill="#3C4242"/>
<path d="M112.715 101.018C109.504 101.035 106.354 100.138 103.633 98.4306C100.912 96.7232 98.7332 94.2761 97.3499 91.3752C95.9666 88.4742 95.4364 85.2392 95.8212 82.0478C96.206 78.8565 97.4899 75.8406 99.523 73.3525C101.556 70.8643 104.255 69.0066 107.303 67.9963C110.351 66.986 113.624 66.8647 116.739 67.6468C119.853 68.4289 122.682 70.0819 124.893 72.4128C127.104 74.7438 128.607 77.6564 129.226 80.8106C130.092 85.1818 129.202 89.7183 126.75 93.4373C124.297 97.1562 120.479 99.758 116.124 100.679C115.001 100.899 113.859 101.013 112.715 101.018ZM112.715 69.7754C111.748 69.7652 110.783 69.8626 109.838 70.0658C107.008 70.61 104.405 71.9856 102.359 74.0171C100.314 76.0485 98.9189 78.6439 98.3528 81.472C97.7866 84.3002 98.0748 87.2331 99.1805 89.8967C100.286 92.5603 102.159 94.8339 104.561 96.4276C106.963 98.0212 109.784 98.8627 112.666 98.8447C115.547 98.8267 118.358 97.95 120.739 96.3265C123.121 94.7029 124.966 92.4062 126.038 89.7289C127.11 87.0517 127.362 84.1155 126.761 81.2946C126.079 78.0651 124.319 75.1643 121.771 73.0703C119.222 70.9763 116.036 69.8142 112.739 69.7754H112.715Z" fill="#3C4242"/>
<path d="M148.373 93.7092C145.35 93.6725 142.392 92.8259 139.807 91.2576C137.222 89.6892 135.103 87.4563 133.672 84.7909C132.241 82.1256 131.549 79.1251 131.668 76.1014C131.788 73.0778 132.714 70.1413 134.351 67.5974C136.203 64.8331 138.827 62.6761 141.896 61.3959C144.966 60.1156 148.343 59.7688 151.608 60.3987C154.873 61.0286 157.88 62.6073 160.254 64.9377C162.628 67.2681 164.264 70.2469 164.957 73.5022C165.822 77.8734 164.932 82.4099 162.48 86.1289C160.027 89.8478 156.209 92.4496 151.854 93.3704C150.707 93.5958 149.541 93.7093 148.373 93.7092ZM148.373 62.467C147.398 62.4678 146.427 62.565 145.472 62.7574C142.642 63.3016 140.038 64.6772 137.993 66.7087C135.947 68.7401 134.552 71.3354 133.986 74.1636C133.42 76.9918 133.708 79.9247 134.814 82.5883C135.92 85.2519 137.793 87.5255 140.194 89.1191C142.596 90.7128 145.418 91.5543 148.299 91.5363C151.18 91.5183 153.991 90.6416 156.373 89.0181C158.754 87.3946 160.599 85.0977 161.671 82.4205C162.744 79.7433 162.995 76.8071 162.394 73.9862C161.714 70.7607 159.957 67.8629 157.413 65.7694C154.869 63.6759 151.69 62.5112 148.397 62.467H148.373Z" fill="#3C4242"/>
<path d="M127.752 80.8348C127.53 80.8395 127.312 80.7807 127.123 80.6654C126.987 80.5857 126.868 80.4794 126.773 80.353C126.678 80.2266 126.61 80.0825 126.571 79.9292C126.533 79.7759 126.526 79.6165 126.55 79.4603C126.574 79.3041 126.629 79.1543 126.712 79.0198C127.052 78.476 127.496 78.0053 128.019 77.6349C128.542 77.2646 129.134 77.0019 129.759 76.8623C130.384 76.7227 131.031 76.7089 131.662 76.8217C132.292 76.9345 132.894 77.1717 133.433 77.5194C133.677 77.6866 133.851 77.9377 133.923 78.225C133.994 78.5123 133.958 78.816 133.821 79.0784C133.684 79.3408 133.456 79.5438 133.179 79.649C132.903 79.7542 132.597 79.7541 132.321 79.649C129.903 78.4148 128.888 80.0604 128.791 80.254C128.683 80.4324 128.53 80.5796 128.348 80.6814C128.166 80.7832 127.96 80.836 127.752 80.8348Z" fill="#3C4242"/>
<path d="M96.832 84.2228L67.7979 87.756L96.832 84.2228Z" fill="white"/>
<path d="M67.7981 88.966C67.4775 88.9852 67.1624 88.8762 66.9222 88.6629C66.6819 88.4496 66.5361 88.1495 66.5168 87.8286C66.4976 87.5077 66.6065 87.1923 66.8196 86.9517C67.0327 86.7112 67.3325 86.5652 67.6531 86.546L96.6631 82.9886C96.8206 82.9684 96.9807 82.9802 97.1336 83.0232C97.2865 83.0661 97.4293 83.1395 97.5533 83.2388C97.6774 83.3382 97.7802 83.4615 97.8557 83.6014C97.9312 83.7414 97.9778 83.8951 97.9927 84.0534C98.0339 84.371 97.9476 84.692 97.7527 84.9461C97.5578 85.2001 97.2703 85.3664 96.9532 85.4086L67.9432 88.9418L67.7981 88.966Z" fill="#3C4242"/>
<path d="M69.9489 98.3071C69.9489 98.3071 60.0371 64.7901 73.3092 41.9695C84.3088 23.0451 113.246 9.95295 134.545 9.25115C129.419 5.00111 123.185 2.30763 116.58 1.48862C109.975 0.66961 103.273 1.75925 97.2667 4.62894C75.1707 14.3089 63.4217 25.2231 59.046 45.0671C52.8088 73.7683 69.9489 98.3071 69.9489 98.3071Z" fill="#3C4242"/>
<path d="M69.9491 99.4688C69.756 99.466 69.5661 99.4187 69.3942 99.3306C69.2223 99.2424 69.0731 99.1158 68.9579 98.9606C68.7887 98.6944 51.5761 73.6474 57.8858 44.7768C62.0922 25.4168 73.0193 13.8492 96.8075 3.46739C103.052 0.529846 110.001 -0.574681 116.847 0.282015C123.694 1.13871 130.157 3.9215 135.488 8.30739C135.656 8.47419 135.773 8.68619 135.825 8.91798C135.876 9.14977 135.86 9.39151 135.778 9.61419C135.698 9.83967 135.551 10.0351 135.356 10.1737C135.161 10.3123 134.929 10.3873 134.69 10.3886C114.189 11.1388 85.3969 23.6018 74.349 42.5988C61.4879 64.6934 71.0128 97.6296 71.1095 97.9684C71.1899 98.2423 71.1709 98.5359 71.0558 98.7972C70.9408 99.0585 70.7372 99.2707 70.481 99.3962C70.3099 99.4539 70.1294 99.4785 69.9491 99.4688ZM112.666 2.42679C107.529 2.46384 102.456 3.57669 97.7745 5.69378C74.7841 15.761 64.268 26.8688 60.2308 45.3334C56.1935 63.798 62.3823 81.2704 66.9272 90.4906C64.7998 78.9956 62.7691 57.6996 72.2699 41.3646C83.1487 22.658 110.563 10.0498 131.305 8.23479C125.809 4.48947 119.315 2.48292 112.666 2.47518V2.42679Z" fill="#3C4242"/>
<path d="M85.7599 92.4024C85.7599 92.4024 71.6901 65.5888 58.9499 83.8356C46.2096 102.082 67.6287 119.99 79.8129 117.57" fill="white"/>
<path d="M77.4189 119.022C70.4323 119.022 62.1161 114.182 57.4504 106.922C54.9952 103.41 53.7209 99.2066 53.8122 94.9208C53.9035 90.6351 55.3556 86.4897 57.958 83.0854C61.3184 78.2454 65.2105 75.8254 69.2961 76.1884C78.9661 76.7934 86.5087 91.144 86.8472 91.749C86.9916 92.0383 87.0168 92.3729 86.9174 92.6807C86.8179 92.9884 86.6017 93.2448 86.3153 93.3946C86.0328 93.5399 85.7045 93.5681 85.4013 93.473C85.0982 93.3779 84.8447 93.1671 84.6956 92.8864C84.6956 92.7412 77.4431 79.1166 69.1511 78.6084C65.9116 78.3906 62.793 80.375 59.9404 84.4648C57.6368 87.4866 56.3491 91.1614 56.2623 94.9615C56.1754 98.7616 57.2938 102.492 59.4569 105.616C64.1468 112.876 73.1641 117.57 79.5705 116.312C79.8874 116.255 80.2141 116.324 80.4806 116.505C80.7472 116.686 80.9324 116.964 80.9968 117.28C81.0533 117.594 80.9834 117.918 80.8022 118.181C80.6211 118.444 80.3434 118.625 80.0298 118.684C79.1729 118.883 78.2983 118.996 77.4189 119.022Z" fill="#3C4242"/>
<path d="M86.0011 235.957C85.8337 235.955 85.6684 235.92 85.5148 235.853C85.3612 235.787 85.2224 235.69 85.1066 235.57C84.8165 235.231 55.1538 203.045 34.7984 195.252C34.6334 195.211 34.4791 195.135 34.3455 195.029C34.2119 194.923 34.1021 194.791 34.0233 194.64C33.9444 194.489 33.8983 194.323 33.888 194.153C33.8776 193.983 33.9033 193.812 33.9632 193.653C34.0231 193.494 34.116 193.349 34.2358 193.228C34.3556 193.107 34.4996 193.012 34.6583 192.951C34.817 192.889 34.9869 192.862 35.1568 192.871C35.3268 192.88 35.493 192.924 35.6445 193.002C56.5559 201.109 85.6626 232.569 86.8955 233.924C87.1185 234.154 87.2433 234.462 87.2433 234.783C87.2433 235.104 87.1185 235.412 86.8955 235.642C86.7753 235.752 86.6341 235.837 86.4804 235.891C86.3267 235.945 86.1636 235.967 86.0011 235.957Z" fill="#3C4242"/>
</svg>
